<?xml version="1.0" encoding="utf-8"?>
<svg version="1.1" id="form_submit_button_right_arrow" xmlns="http://www.w3.org/2000/svg" xmlns:xlink="http://www.w3.org/1999/xlink" x="0px" y="0px"
	 viewBox="0 0 32 11" style="enable-background:new 0 0 32 11;" xml:space="preserve">
<style type="text/css">
	.st0{fill:#FFFFFF;}
</style>
<path id="Forma_1" class="st0" d="M26.7,0.2c-0.2-0.2-0.6-0.2-0.8,0c-0.2,0.2-0.2,0.6,0,0.8c0,0,0,0,0,0l4.2,4H0.6
	C0.3,4.9,0,5.2,0,5.5c0,0,0,0,0,0C0,5.8,0.3,6.1,0.6,6c0,0,0,0,0,0H30l-4.2,4c-0.2,0.2-0.2,0.6,0,0.8c0,0,0,0,0,0
	c0.2,0.2,0.6,0.2,0.8,0l5.1-4.9c0.2-0.2,0.2-0.5,0-0.8c0,0,0,0,0,0L26.7,0.2z"/>
</svg>
